<?xml version="1.0" encoding="UTF-8"?><svg id="_레이어_2" xmlns="http://www.w3.org/2000/svg" viewBox="0 0 141.87 56.68"><defs><style>.cls-1{fill:#fff;stroke:#000;stroke-linecap:round;stroke-linejoin:round;stroke-width:2px;}.cls-2{stroke-width:0px;}</style></defs><g id="_레이어_1-2"><path class="cls-1" d="m62.49,20.06c-.08-2.81-1.3-5.34-1.96-8.01-1.17-4.7,1.22-8.74,5.96-10.49,4.09-1.51,7.8.06,9.96,4.52,1.15,2.39,1.87,4.98,2.78,7.48,3.89.61,6.92,2.21,8.87,5.95.98,1.89,2.95,3.12,5.39,3.61,12.22,2.45,24.75,1.53,37.01,3.44,2.17.34,4.33.92,6.5.93,2.07,0,3.72.73,3.87,2.58.13,1.66-.88,3.51-2.88,3.95-1.72.37-3.05,1.56-4.98,1.67-2.2.12-4.75.68-6.43,1.97-5.25,4.03-11.28,5.57-17.54,7.04-3.85.91-7.31,3.33-11.05,4.83-4.85,1.94-9.99,1.23-14.98.96-7.08-.38-13.59,1.49-20,4.07-4.16,1.67-8.45,1.62-11.91-1.11-2.86-2.26-5.65-2.28-8.57-1.33-6.45,2.11-12.48,2.12-18.57-1.47-4.4-2.6-9.7-.27-14.46-1.56-.62-.17-1.35.1-1.99-.04-2.48-.55-5.54-.86-6.36-3.52-.73-2.37,1.67-4.03,3.38-5.42,3.34-2.7,7.51-3.74,11.48-4.99,8.45-2.66,16.91-5.36,25.52-7.39,3.31-.78,3.43-2.68,2.81-4.61-.54-1.71-.7-3.33-.87-5.05-.97-9.75,4.51-14.07,14.02-11.01.65.21,1.33.34,2,.51"/><path class="cls-2" d="m58.39,34.28c1.42-.91,2.83-1.81,4.25-2.72.49-.32.74-1.01.4-1.54-.32-.49-1.01-.74-1.54-.4l-4.25,2.72c-.49.32-.74,1.01-.4,1.54.32.49,1.01.74,1.54.4h0Z"/><path class="cls-2" d="m72.43,28.41h5.07c.59,0,1.15-.52,1.12-1.12s-.49-1.12-1.12-1.12h-5.07c-.59,0-1.15.52-1.12,1.12s.49,1.12,1.12,1.12h0Z"/></g></svg>