<?xml version="1.0" encoding="UTF-8"?><svg id="_레이어_2" xmlns="http://www.w3.org/2000/svg" viewBox="0 0 567.4 567.4"><defs><style>.cls-1{fill:#e2e4df;}.cls-1,.cls-2{stroke-width:0px;}.cls-2{fill:#677676;}</style></defs><g id="_레이어_1-2"><path class="cls-2" d="m283.7,383.04c82.35,0,155.55,39.12,202.07,99.78,50.47-51.22,81.63-121.52,81.63-199.11C567.4,127.02,440.38,0,283.7,0S0,127.02,0,283.7c0,77.59,31.16,147.89,81.63,199.11,46.52-60.66,119.72-99.78,202.07-99.78Zm0-264.51c67.04,0,121.38,54.34,121.38,121.38s-54.34,121.38-121.38,121.38-121.38-54.34-121.38-121.38,54.34-121.38,121.38-121.38Z"/><circle class="cls-1" cx="283.7" cy="239.91" r="121.38"/><path class="cls-1" d="m283.7,567.4c79.09,0,150.62-32.38,202.07-84.59-46.52-60.66-119.72-99.78-202.07-99.78s-155.55,39.12-202.07,99.78c51.45,52.21,122.97,84.59,202.07,84.59Z"/></g></svg>