<?xml version="1.0" encoding="UTF-8"?><svg id="_레이어_2" xmlns="http://www.w3.org/2000/svg" viewBox="0 0 137.34 154.11"><defs><style>.cls-1{fill:#fff;stroke:#000;stroke-linecap:round;stroke-linejoin:round;stroke-width:2px;}.cls-2{stroke-width:0px;}</style></defs><g id="_레이어_1-2"><ellipse class="cls-2" cx="18.63" cy="113.48" rx="7.74" ry="8.74"/><path class="cls-1" d="m105.88,8.21c4.22-1.06,9.3,3.16,12.39,5.35,10.43,7.38,15.94,17.71,17.6,30.41,1.53,11.69-.56,22.05-7.95,31.59-6.55,8.45-15.14,12.78-25.05,15.46-5.92,1.6-13.97-2.55-17.98,1.96-41.73,47.04-65.29,61.32-73.79,55.41-5.29-3.68,7.34-24.1,14.36-60.57,2.94-15.29,12-34.87,16.46-34.98,15.44-.39,35.41,3.04,37.24-1.15.5-1.14-14.9-6.96-16.95-14.54-4.23-15.65,8.82-12.09,9.95-15.42,2.48-7.35,15.82-9.02,33.72-13.5Z"/><path class="cls-1" d="m57.44,68.48c9.28,7.49,18.89,14.78,26.21,24.19,3.04,3.91,3.21,9.95,1.74,15.31-2.81,10.27-9.46,18.03-17.06,24.9-4.23,3.82-8.42,7.5-12,12.01-3.1,3.91-6.6,7.73-12.36,8.15-6.84.5-11.91-1.77-14.98-8.06"/><path class="cls-1" d="m111.34,38.48c-4.17,7.77-12.12,9.33-19.5,11.39-7.21,2.01-14.14,3.04-21.31-.28-2.4-1.11-4.47-.36-8.47-.6-2.2-.13-5.22.37-7.1-.08-10.97-2.62-20.92.24-29.89,6.19-7.93,5.26-13.33,12.35-12.11,22.9.79,6.81,4.46,11.96,8.55,16.99.67.83,1.33,1.67,2,2.5"/><path class="cls-1" d="m73.91,12.73c-12.94-3.49-22.98,3.78-23.39,17.25-.19,6.24,3.63,13.38,9.47,14.33,1.98.32,9.91.86,10.75,1.77"/><g id="_이어폰_줄"><path class="cls-2" d="m58.61,111.6c.62-5.44,1.13-11.2-1.51-16.23-2.42-4.62-7.28-6.6-12.16-7.53-9.71-1.85-20.21.8-25.97,9.29-2.95,4.35-4.21,9.68-3.26,14.87.35,1.9,3.24,1.09,2.89-.8-1.47-8.02,3.77-16.04,11.03-19.18,4.02-1.74,8.56-2.11,12.88-1.56s8.99,1.73,11.4,5.39c3.04,4.63,2.29,10.55,1.7,15.74-.22,1.91,2.78,1.9,3,0h0Z"/></g><path class="cls-1" d="m8.03,128.48c-6.76,3.69-9.73,11.67-3.95,18.97,4.6,5.81,15.59,6.2,20.92,1.03,1.35-1.31,2.67-2.66,4-4"/><path class="cls-1" d="m39.47,98.48c-6.61-8.23-16.84-2.44-19.42,5.52-1.64,5.04-3.77,9.25-7.82,13.2-6.62,6.44-5.78,10.54,1.29,18.28"/><path class="cls-1" d="m53.44,113.48c1.63-3.32,2.13-6.84,2-10.5-.15-4.28-2.39-7.31-6-8-3.78-.72-9.29,2.07-10.45,5.51-1.45,4.29-2.69,8.66-4.02,12.99"/><path class="cls-1" d="m109.84,9.48c-1.03-1.7-.54-3.95-1.99-5.5-5.08-5.43-10.27-2.64-13.87,2.09-1.07,1.4-1.5,3.1-3.6,2.9-13.05-1.24-19.28,6.44-22.96,17.51"/><ellipse id="_오른쪽헤드폰" class="cls-2" cx="57.64" cy="117.77" rx="7.74" ry="8.74"/><path class="cls-1" d="m38.47,132.48c-6.22,1.58-7.11,7.38-9.48,12-1.33-.14-6.37-2.4-7.59-3.57"/><path class="cls-2" d="m23.59,128.01c1.93,0,1.93-3,0-3s-1.93,3,0,3h0Z"/><path class="cls-2" d="m35.9,128.01c1.93,0,1.93-3,0-3s-1.93,3,0,3h0Z"/><path class="cls-1" d="m78.31,50.97c-2.25-1.45-4.85-2.47-6.76-4.35-1.54-1.53-2.39-3.63-3.58-5.44"/></g></svg>